<svg width="21" height="20" viewBox="0 0 21 20" fill="none" xmlns="http://www.w3.org/2000/svg">
<path d="M14.8633 0.526367C17.9009 0.526367 20.3633 3.02637 20.3633 6.52637C20.3633 13.5264 12.8633 17.5264 10.3633 19.0264C7.86328 17.5264 0.363281 13.5264 0.363281 6.52637C0.363281 3.02637 2.86328 0.526367 5.86328 0.526367C7.72325 0.526367 9.36328 1.52637 10.3633 2.52637C11.3633 1.52637 13.0033 0.526367 14.8633 0.526367ZM11.2972 16.1302C12.1788 15.5749 12.9733 15.0219 13.7182 14.4293C16.697 12.0594 18.3633 9.46987 18.3633 6.52637C18.3633 4.16713 16.8263 2.52637 14.8633 2.52637C13.7874 2.52637 12.6226 3.09548 11.7775 3.94058L10.3633 5.3548L8.94908 3.94058C8.10396 3.09548 6.93918 2.52637 5.86328 2.52637C3.92234 2.52637 2.36328 4.18287 2.36328 6.52637C2.36328 9.46987 4.02955 12.0594 7.00842 14.4293C7.75328 15.0219 8.54778 15.5749 9.42938 16.1302C9.72788 16.3183 10.0244 16.4993 10.3633 16.7016C10.7022 16.4993 10.9987 16.3183 11.2972 16.1302Z" fill="#E9098D"/>
</svg>
